# xmcd
#
# Track frame offsets:
#	150
#	17614
#	33555
#	50375
#	62538
#	78158
#	96378
#	110684
#	125086
#	140034
#
# Disc length: 2042 seconds
#
# Revision: 0
# Processed by: cddbd v1.5.1PL0 Copyright (c) Steve Scherf et al.
# Submitted via: EasyCDDAExtractor 8.2.3.1
#
DISCID=8807f80a
DTITLE=Various Artist - HILLCREST 21
DYEAR=2005
DGENRE=Country
TTITLE0=Rhonda grant - Rhythm of love
TTITLE1=Marty lamar - Are yu ready
TTITLE2=Karen tobin - Hills of home
TTITLE3=Brad kepler - Love money can't buy
TTITLE4=Slow horses - I wanna know
TTITLE5=Danny mack - Hotel
TTITLE6=Skyla spender - Wild dreams
TTITLE7=Ren lehman - Diamonds in the rain
TTITLE8=Nicki gillis - On the mountain
TTITLE9=Doug jones - The feeling
EXTD=
EXTT0=
EXTT1=
EXTT2=
EXTT3=
EXTT4=
EXTT5=
EXTT6=
EXTT7=
EXTT8=
EXTT9=
PLAYORDER=
